<svg width="512" height="512" viewBox="0 0 512 512" xmlns="http://www.w3.org/2000/svg">
  <!-- Transparent background - no rect -->
  <!-- Clear C shape in neon green -->
  <rect x="180" y="80" width="50" height="50" fill="#00ff9f"/>
  <rect x="230" y="80" width="50" height="50" fill="#00ff9f"/>
  <rect x="280" y="80" width="50" height="50" fill="#00ff9f"/>
  <rect x="330" y="80" width="50" height="50" fill="#00d4ff" opacity="0.7"/>
  
  <rect x="130" y="130" width="50" height="50" fill="#00ff9f"/>
  <rect x="180" y="130" width="50" height="50" fill="#00ff9f" opacity="0.5"/>
  
  <rect x="80" y="180" width="50" height="50" fill="#00ff9f"/>
  <rect x="130" y="180" width="50" height="50" fill="#00ff9f" opacity="0.4"/>
  
  <rect x="80" y="230" width="50" height="50" fill="#00ff9f"/>
  
  <rect x="80" y="280" width="50" height="50" fill="#00ff9f"/>
  
  <rect x="80" y="330" width="50" height="50" fill="#00ff9f"/>
  <rect x="130" y="330" width="50" height="50" fill="#00ff9f" opacity="0.4"/>
  
  <rect x="130" y="380" width="50" height="50" fill="#00ff9f"/>
  <rect x="180" y="380" width="50" height="50" fill="#00ff9f" opacity="0.5"/>
  
  <rect x="180" y="430" width="50" height="50" fill="#00ff9f"/>
  <rect x="230" y="430" width="50" height="50" fill="#00ff9f"/>
  <rect x="280" y="430" width="50" height="50" fill="#00ff9f"/>
  <rect x="330" y="430" width="50" height="50" fill="#00d4ff" opacity="0.7"/>
</svg>