<svg width="512" height="512" viewBox="0 0 512 512" xmlns="http://www.w3.org/2000/svg">
  <rect width="512" height="512" fill="#0a1628"/>
  <!-- Grid background -->
  <defs>
    <pattern id="grid" width="40" height="40" patternUnits="userSpaceOnUse">
      <path d="M 40 0 L 0 0 0 40" fill="none" stroke="#1e3a5f" stroke-width="1"/>
    </pattern>
  </defs>
  <rect width="512" height="512" fill="url(#grid)"/>
  <!-- Clearer C shape -->
  <rect x="180" y="80" width="50" height="50" fill="#00ff9f"/>
  <rect x="230" y="80" width="50" height="50" fill="#00ff9f"/>
  <rect x="280" y="80" width="50" height="50" fill="#00ff9f"/>
  <rect x="330" y="80" width="50" height="50" fill="#00d4ff" opacity="0.6"/>
  
  <rect x="130" y="130" width="50" height="50" fill="#00ff9f"/>
  <rect x="180" y="130" width="50" height="50" fill="#00ff9f" opacity="0.4"/>
  
  <rect x="80" y="180" width="50" height="50" fill="#00ff9f"/>
  <rect x="130" y="180" width="50" height="50" fill="#00ff9f" opacity="0.3"/>
  
  <rect x="80" y="230" width="50" height="50" fill="#00ff9f"/>
  
  <rect x="80" y="280" width="50" height="50" fill="#00ff9f"/>
  
  <rect x="80" y="330" width="50" height="50" fill="#00ff9f"/>
  <rect x="130" y="330" width="50" height="50" fill="#00ff9f" opacity="0.3"/>
  
  <rect x="130" y="380" width="50" height="50" fill="#00ff9f"/>
  <rect x="180" y="380" width="50" height="50" fill="#00ff9f" opacity="0.4"/>
  
  <rect x="180" y="430" width="50" height="50" fill="#00ff9f"/>
  <rect x="230" y="430" width="50" height="50" fill="#00ff9f"/>
  <rect x="280" y="430" width="50" height="50" fill="#00ff9f"/>
  <rect x="330" y="430" width="50" height="50" fill="#00d4ff" opacity="0.6"/>
</svg>